# xmcd
#
# Track frame offsets: 
#        150
#        16920
#        36246
#        49356
#        68138
#        85840
#        97994
#        112960
#        125342
#        145492
#        164606
#        175192
#
# Disc length: 2533 seconds
#
# Revision: 0
# Processed by: cddbd v1.5.1PL0 Copyright (c) Steve Scherf et al.
# Submitted via: ExactAudioCopy v0.95a5
#
DISCID=a009e30c
DTITLE=Gregg Krupa - Walkin' Into Warrendale
DYEAR=1999
DGENRE=Blues
TTITLE0=Walkin' Into Warrendale
TTITLE1=Lookin' For A Reason
TTITLE2=Might Be Getting Drunk
TTITLE3=A Past Life
TTITLE4=You Lie
TTITLE5=Eldorado To The Moon
TTITLE6=I Wanna Be Dean Martin
TTITLE7=Guitar Man
TTITLE8=Lonely At The Bottom
TTITLE9=Stevie Ray
TTITLE10=Ain't That A Kick In The Head
TTITLE11=Feelin' Bad Blues
EXTD=
EXTT0=
EXTT1=
EXTT2=
EXTT3=
EXTT4=
EXTT5=
EXTT6=
EXTT7=
EXTT8=
EXTT9=
EXTT10=
EXTT11=
PLAYORDER=
